<svg xmlns="http://www.w3.org/2000/svg" version="1.1" viewBox="0 0 32 32" width="32" height="32"><metadata><rdf:RDF xmlns:rdf="http://www.w3.org/1999/02/22-rdf-syntax-ns#" xmlns:dc="http://purl.org/dc/elements/1.1/"><rdf:Description><dc:creator>RealFaviconGenerator</dc:creator><dc:source>https://realfavicongenerator.net</dc:source></rdf:Description></rdf:RDF></metadata><defs>
    <style>
      .cls-1 {
        fill: #fff;
      }

      .cls-2 {
        fill: #586c5c;
      }
    </style>
  </defs><g>
    <g id="Layer_1">
      <rect class="cls-2" x="0" width="32" height="32"></rect>
    </g>
    <g id="Layer_2">
      <polygon class="cls-2" points="14.17 8.54 13.8 11.37 14.55 11.37 14.17 8.54"></polygon>
    </g>
    <g id="Layer_4">
      <rect class="cls-1" x="13.61" y="12.21" width="6.38" height="17.85"></rect>
      <g id="Layer_5">
        <polygon class="cls-1" points="13.61 12.21 6.69 30.06 6.69 30.06 20.54 30.06 20.54 30.06 13.61 12.21 13.61 12.21"></polygon>
        <g id="Layer_5_copy">
          <polygon class="cls-1" points="19.99 12.21 13.07 30.06 13.07 30.06 26.92 30.06 26.92 30.06 19.99 12.21 19.99 12.21"></polygon>
        </g>
      </g>
      <g id="Layer_11">
        <polygon class="cls-1" points="15.19 8.66 18.17 8.31 15.22 1.96 15.19 2.07 15.21 1.94 12.31 1.94 13.76 11.15 13.89 10.35 13.95 11.15 15.19 8.66"></polygon>
        <g id="Layer_7">
          <polygon class="cls-1" points="16.77 5.5 13.94 11.15 19.59 11.15 16.77 5.5"></polygon>
        </g>
      </g>
      <g id="Layer_12">
        <g>
          <polygon class="cls-1" points="16.02 8.93 15.24 10.98 16.8 10.98 16.02 8.93"></polygon>
          <polygon class="cls-1" points="14.14 7.86 13.76 11.15 14.51 11.15 14.14 7.86"></polygon>
        </g>
      </g>
    </g>
    <g id="Layer_14">
      <ellipse class="cls-2" cx="16.8" cy="19.65" rx="3.62" ry="3.65"></ellipse>
      <g id="Layer_15">
        <polygon class="cls-2" points="16.8 27.4 13.4 20.9 20.2 20.9 16.8 27.4"></polygon>
      </g>
    </g>
    <g id="Layer_10">
      <circle class="cls-1" cx="16.8" cy="19.65" r="1.71"></circle>
    </g>
    <g id="Layer_13">
      <rect class="cls-2" x="11.31" y="10.46" width="10.75" height="1.75"></rect>
    </g>
  </g></svg>